<svg width="620" height="170" viewBox="0 0 620 170" fill="none" xmlns="http://www.w3.org/2000/svg">
<path d="M268.794 49.9886C269.982 49.8439 271.01 49.2424 272.083 48.7932C272.304 48.7019 272.647 48.4658 272.639 48.306C272.487 45.5042 274.87 45.5499 276.476 45.1921C284.501 43.4258 292.632 42.6187 300.87 42.7862C305.194 42.8776 309.48 43.2507 313.698 44.1491C316.348 44.7124 318.792 45.824 319.964 48.5725C320.238 49.212 320.604 49.2957 321.22 49.0826C325.75 47.5218 330.357 46.2351 335.008 45.1084C335.937 44.8799 336.112 44.2328 336.295 43.4943C337.087 40.2129 338.016 36.9924 340.231 34.3277C341.366 32.9573 342.652 31.7772 344.396 31.2138C345.583 30.8331 346.771 30.795 347.692 31.701C348.4 32.3862 348.667 32.0284 349.169 31.5031C350.761 29.8205 352.2 30.1022 352.999 32.2873C353.677 34.145 353.905 36.1168 353.867 38.0811C353.844 39.1698 354.232 39.3297 355.169 39.0176C356.981 38.4161 358.739 37.6548 360.62 37.2589C362.219 36.9163 363.635 36.8858 364.198 38.8348C364.381 39.4896 364.8 39.2003 365.219 39.1698C367.023 39.0099 368.82 38.8425 370.632 38.7587C371.309 38.7283 372.017 38.8425 372.68 39.0024C374.454 39.4211 374.834 40.6393 373.73 42.063C373.471 42.3904 372.786 42.5198 373.106 43.1745L373.121 43.1669C372.703 42.87 372.543 43.0984 372.467 43.4943L372.482 43.4867C371.903 43.3801 371.698 43.5704 371.972 44.1338C372.071 44.6591 372.299 44.9789 372.794 44.4917C373.205 44.0958 373.532 43.6161 373.898 43.1745C377.332 39.8779 381.024 36.9315 385.455 35.051C393.03 31.8381 401.771 33.3988 406.872 39.2155C408.006 40.5098 408.729 42.0477 409.62 43.4867C410.671 46.8747 411.196 50.3311 410.922 53.8714C410.77 55.79 410.914 57.9141 408.554 58.8201C408.105 58.9876 408.143 59.5282 408.082 59.947C407.542 63.51 406.011 66.6392 403.956 69.5551C401.184 73.476 397.553 76.5595 393.952 79.6506C389.566 83.4192 385.052 86.9747 379.06 87.8959C375.459 88.4441 368.721 87.3249 366.383 82.6731C366.17 82.2543 365.904 82.0412 365.424 81.9574C362.531 81.4473 361.305 80.0236 360.917 77.0924C360.574 74.4658 360.81 71.8848 361.29 69.3115C362.622 62.1777 364.807 55.3637 368.926 49.2957C369.315 48.7171 369.733 48.1613 370.144 47.5979C364.45 50.5063 358.709 53.0949 352.748 55.0515C349.261 56.1935 347.274 58.3862 345.911 61.6219C341.51 72.0828 336.729 82.3762 332.998 93.1111C332.085 95.7454 330.752 98.174 328.864 100.268C327.479 101.806 325.872 102.704 323.771 101.867C323.23 101.653 323.04 101.76 322.774 102.194C321.936 103.549 321.053 104.882 320.185 106.221C319.622 106.701 319.081 107.204 318.495 107.645C317.444 108.445 316.333 108.749 315.145 107.927C314.178 106.48 313.995 104.866 314.094 103.176C314.368 98.4862 315.724 94.0704 317.421 89.7384C320.695 81.394 324.799 73.4228 328.628 65.3297C329.154 64.2181 329.839 63.1522 330.105 61.7285C327.174 62.6116 324.449 63.5177 321.685 64.2333C318.091 65.1622 316.751 64.5607 314.97 61.4544C314.802 61.5838 314.612 61.6904 314.467 61.8427C304.905 71.5803 292.936 77.5949 280.839 83.3583C279.27 84.1044 278.258 85.0104 277.58 86.5712C275.22 91.9919 273.081 97.5041 270.979 103.031C269.388 107.211 267.926 111.46 265.498 115.266C264.744 116.446 263.693 117.375 262.209 117.086C260.709 116.797 260.123 115.578 259.947 114.132C259.886 113.607 259.727 113.089 259.658 112.563C259.597 112.107 259.43 111.756 258.988 111.559C257.29 110.812 257.184 109.351 257.313 107.79C257.587 104.425 258.455 101.197 259.346 97.9533C261.775 89.076 263.747 80.0921 266.655 71.3366C268.246 66.5478 269.502 61.6448 270.941 56.8026C271.208 55.9118 271.04 55.6149 270.058 55.5844C268.893 55.5463 267.736 55.3332 266.586 55.12C265.726 54.9601 264.911 54.6252 264.805 53.5669C264.706 52.5695 265.353 52.0213 266.076 51.5112C266.906 50.9098 268.04 50.7956 268.794 49.9886ZM393.464 56.1554C393.365 55.0591 393.32 53.7801 393.107 52.5238C392.901 51.2829 392.193 50.8489 390.914 51.359C389.437 51.9452 388.105 52.8969 386.498 53.1557C386.14 53.2166 386.034 53.5669 385.904 53.8562C384.922 56.0565 383.346 57.8989 382.136 59.9621C380.316 63.0456 378.603 66.1823 378.238 69.8216C378.04 71.8163 378.641 72.3797 380.605 72.1665C382.882 71.9153 385.074 71.3062 387.214 70.4763C389.551 69.5703 391.051 67.8726 391.911 65.5657C393.015 62.5736 393.236 59.452 393.464 56.1554ZM298.152 57.8076C294.726 57.5792 291.49 58.371 288.247 59.1704C287.896 59.2541 287.645 59.3836 287.63 59.7642C287.577 61.3326 287.059 62.8781 287.356 64.6597C291.239 62.6878 294.733 60.3505 298.152 57.8076Z" fill="#FDCE5B"/>
<path d="M160.699 55.9802C163.257 53.2394 166.447 52.8739 170.033 53.011C173.528 53.1404 177.06 52.9272 180.562 53.1556C187.902 53.62 195.226 54.3129 202.101 57.2365C205.458 58.6678 208.542 60.5635 211.047 63.2739C213.148 65.5351 213.491 68.1389 212.204 70.9483C210.765 74.0926 208.207 76.1559 205.489 78.0821C202.52 80.1986 199.284 81.8127 195.919 83.1983C194.792 83.5028 193.665 83.8302 192.531 84.1119C191.785 84.2946 191.602 84.5687 192.005 85.3301C194.305 89.6545 196.573 93.9942 198.812 98.3491C200.586 101.806 202.481 105.216 203.677 108.924C204.286 110.805 204.568 112.99 202.679 114.162C200.852 115.304 201.02 116.393 201.789 117.908C202.154 118.616 202.443 119.355 202.763 120.085C202.855 120.87 202.976 121.654 203.037 122.446C203.121 123.504 202.71 124.326 201.758 124.813C200.761 125.339 199.786 125.156 198.888 124.555C197.655 123.732 196.947 122.461 196.208 121.235C195.637 120.291 195.058 119.583 193.734 119.621C192.592 119.659 191.708 118.776 190.894 118.007C188.084 115.327 185.283 112.64 182.481 109.952C182.367 109.784 182.253 109.625 182.138 109.457L182.146 109.48C182.214 109.122 181.994 108.871 181.803 108.627C179.07 105.232 177.022 101.448 175.416 97.4126C175.058 96.5218 174.829 95.5245 174.06 94.7631C172.652 97.6943 171.335 100.549 169.926 103.359C166.607 109.982 162.991 116.454 160.151 123.314C159.321 125.331 158.407 127.333 156.671 128.803C155.133 130.105 153.07 130.105 151.586 128.742C151.007 128.217 150.52 127.592 149.994 127.021C149.408 127.379 149.37 127.958 149.149 128.43C147.421 132.145 146.035 136.028 143.926 139.568C143.477 140.322 142.921 141.06 141.901 140.756C140.82 140.429 140.729 139.492 140.813 138.533C140.843 138.213 140.904 137.901 140.972 137.589C142.274 131.239 144.726 125.278 147.124 119.301C147.36 118.723 147.771 118.174 147.55 117.489C147.604 117.451 147.665 117.413 147.718 117.375C147.687 117.375 147.634 117.36 147.619 117.375C147.589 117.406 147.573 117.451 147.55 117.489C146.667 117.68 145.746 118.555 144.916 117.55C144.132 116.598 144.741 115.624 145.152 114.71C145.388 114.177 145.693 113.675 145.967 113.15C147.984 109.328 149.827 105.422 151.38 101.387C153.276 96.4609 155.141 91.5274 157.06 86.6167C159.648 79.9854 163.143 73.8262 166.79 67.743C167.848 65.9843 167.734 65.8016 165.975 64.5301C165.693 65.4285 165.518 66.3726 165.107 67.2101C162.785 71.9837 160.075 76.4909 156.093 80.1072C153.733 82.2542 151.068 83.8835 148.022 84.8504C146.447 85.3529 145.038 85.1093 144.063 83.6703C143.729 83.1755 143.424 83.1298 142.876 83.2592C139.983 83.8988 139.107 83.4343 138.437 80.5488C138.133 79.2393 137.645 79.4601 136.869 79.9169C134.219 81.4853 132.042 83.6094 130.009 85.8706C125.761 90.591 121.528 95.3265 117.363 100.108C114.835 103.009 112.658 106.176 111.097 109.724C110.808 110.386 110.298 111.216 110.892 111.81C111.463 112.388 112.194 111.749 112.787 111.467C115.544 110.173 118.102 108.513 120.713 106.96C123.37 105.376 126.081 103.884 128.92 102.635C130.199 102.072 131.509 101.714 132.377 103.328C132.613 103.77 132.963 103.633 133.344 103.58C135.186 103.336 136.024 104.044 136.1 105.909C136.176 107.721 135.712 109.411 134.76 110.942C131.92 115.525 127.596 118.753 123.111 121.197C116.708 124.692 109.94 127.821 102.304 127.821C100.24 127.668 98.1772 127.539 96.1216 127.372C92.7184 127.09 90.7465 125.133 89.8557 121.943C89.8101 121.631 89.8101 121.304 89.7187 120.999C88.7137 117.444 88.5234 113.827 89.3304 110.249C89.9852 107.333 90.8455 104.645 92.8707 102.019C96.9363 96.7427 100.804 91.3218 105.281 86.3731C112.559 78.3333 120.439 71.0168 130.382 66.3497C134.288 64.5149 138.27 62.8323 142.282 61.264C147.101 59.3834 152.004 57.6095 157.296 57.8836C158.986 57.9445 160.075 57.5181 160.699 55.9802ZM191.906 68.7327C189.63 67.7354 187.62 67.1568 185.443 67.2024C184.818 67.2177 184.377 67.4004 184.255 68.0095C184.049 69.0373 183.326 69.9509 183.57 71.0701C183.593 71.1767 183.943 71.2833 184.133 71.2604C186.783 70.9787 189.394 70.5676 191.906 68.7327Z" fill="#FDCE5B"/>
<path d="M481.232 90.6519C480.304 90.218 479.565 89.5328 478.849 88.6496C477.974 89.5633 477.555 90.7053 476.992 91.7331C475.743 94.0171 474.441 96.2631 472.949 98.3948C472.226 99.4303 471.381 100.374 469.934 99.4531C469.782 98.7907 469.462 98.1817 469.622 97.4355C470.109 95.2048 470.635 92.9893 471.32 90.8118C472.797 86.1296 474.738 81.6376 476.672 77.1381C476.999 76.3691 477.312 75.8895 476.025 75.7753C474.883 75.6687 474.418 74.7398 474.83 73.6283C475.126 72.8365 475.568 72.0904 476.017 71.3747C477.647 68.8014 479.154 66.1671 480.357 63.373C485.184 52.1127 490.079 40.8904 495.492 29.8966C496.079 28.7089 496.513 27.4375 496.916 26.1736C497.137 25.4732 497.289 24.6281 496.612 24.0799C495.005 22.778 493.452 21.3467 491.655 20.3494C490.475 19.6946 490.574 19.116 490.962 18.21C491.229 17.5857 491.785 17.0603 491.541 16.2838C492.729 13.1546 495.333 12.1116 498.347 11.8452C502.489 11.4797 506.661 11.2665 510.811 11.5102C521.264 12.1116 530.849 15.3016 539.277 21.6056C542.498 24.019 542.878 26.935 540.625 30.2164C537.389 34.9215 532.699 37.8831 527.91 40.7077C526.723 41.4082 525.505 42.0705 524.302 42.7557C523.228 42.9385 522.383 43.6922 521.355 43.9511C520.099 44.2632 520.008 44.8494 520.594 45.8772C522.177 48.6561 523.738 51.4427 525.269 54.2445C528.329 59.8251 532.281 65.0099 533.118 71.7402C533.24 71.192 533.331 70.7885 533.43 70.3774C535.638 61.5838 538.775 53.0948 542.17 44.7124C545.041 37.6167 547.675 30.3687 552.342 24.1409C552.464 23.9734 552.624 23.7678 552.624 23.5775C552.586 21.6893 553.926 20.8823 555.326 20.1743C555.943 19.8621 556.095 19.6337 555.776 18.9866C554.931 17.2812 554.763 15.4235 554.694 13.5506C555.913 6.9497 559.856 2.67857 566.054 0.424985C568.68 -0.53431 569.944 0.097601 571.101 2.65572C571.414 5.89905 570.249 8.95964 569.975 12.104C569.754 14.7078 568.985 16.6112 566.678 17.8293C566.191 18.0882 566.077 18.4003 566.457 18.8343C567.234 19.7251 567.059 20.7529 566.762 21.7198C564.379 29.3789 562.498 37.2131 559.46 44.6439C554.131 57.7009 548.368 70.5601 542.216 83.2517C541.82 83.6856 541.447 84.1349 541.028 84.546C539.437 86.122 538.44 86.0611 536.932 84.31C536.445 82.4903 536.186 80.6631 536.582 78.7902C536.795 77.7776 536.818 77.2371 535.478 77.8385C533.955 78.5314 532.76 77.6558 532.608 75.9732C532.562 75.4479 532.791 74.8616 532.418 74.382C530.727 75.7143 530.598 77.3208 531.207 79.1556C531.557 80.2139 531.801 81.3103 531.999 82.4066C532.311 84.1653 531.55 85.6728 529.509 85.2236C528.71 84.9495 528.032 84.4927 527.476 83.8607C525.954 82.2239 524.507 80.5261 523.312 78.6227C523.007 78.1354 522.611 77.6329 521.995 77.5187C518.866 76.9553 516.955 74.6789 514.96 72.5396C509.699 66.8904 505.222 60.693 501.971 53.6506C501.827 53.3384 501.743 52.8512 501.286 52.874C500.845 52.8968 500.799 53.3994 500.662 53.7115C497.677 60.4799 494.465 67.1416 491.823 74.0699C490.193 78.3486 489.021 82.7949 487.08 86.9518C485.938 89.3881 484.24 91.0935 481.232 90.6519ZM523.837 29.2875C521.37 28.2217 519.216 27.5212 516.993 26.9959C516.703 26.9274 516.308 26.9274 516.079 27.0721C514.412 28.1075 513.072 29.4322 512.554 31.4193C512.364 32.1426 512.508 32.6222 513.369 32.4776C516.871 31.8761 520.183 30.658 523.837 29.2875Z" fill="#FDCE5B"/>
<path d="M602.454 8.63996C604.601 5.96003 607.631 5.02359 610.829 4.46781C612.298 4.20895 613.775 4.05666 615.275 4.10995C618.754 4.23938 620.193 5.97525 619.98 9.48505C619.508 17.1213 617.163 24.2704 614.475 31.3433C614.102 32.333 613.965 32.8051 615.153 33.2999C617.079 34.107 617.391 35.8732 616.059 37.6472C615.519 38.3628 614.887 39.0785 614.148 39.5734C611.529 41.3169 610.456 43.9892 609.451 46.7833C607.205 53.0035 605.743 59.4369 604.091 65.8169C603.581 67.7812 602.789 69.6542 601.7 71.3748C599.309 75.1587 597.193 75.3794 594.17 72.2122C592.084 69.1516 590.729 65.8626 591.011 62.0635C591.041 61.6828 590.988 61.325 590.531 61.1651C589.153 60.6855 589.077 59.5511 588.993 58.3177C588.856 56.3839 589.549 54.5567 589.716 52.6152C586.938 53.5517 584.57 55.3484 582.43 58.0588C581.471 59.2694 580.535 60.4951 579.324 61.4849C578.342 62.2919 577.147 62.5051 576.187 61.9645C575.045 61.325 574.589 61.8504 573.98 62.566C572.822 63.9288 571.528 65.1622 569.716 65.52C566.054 66.2509 563.108 62.665 564.371 59.0105C565.285 56.361 566.945 54.1075 568.445 51.7777C577.192 38.1573 587.851 26.1128 599.172 14.6165C600.847 12.9111 602.614 11.3275 602.454 8.63996ZM600.954 25.0469C599.446 26.6914 598.335 28.5948 597.178 30.4677C596.812 31.0616 595.921 31.9067 596.47 32.3559C597.193 32.9421 598.175 32.2569 598.906 31.7163C599.53 31.2595 599.842 30.5515 600.086 29.851C600.619 28.3055 600.832 26.6991 600.954 25.0469Z" fill="#FDCE5B"/>
<path d="M444.718 34.5638C446.37 33.8024 447.139 32.1123 448.502 31.0083C453.778 26.7143 459.846 24.514 466.523 24.0496C470.733 23.7527 473.9 25.7322 475.849 29.5237C476.725 31.2291 477.494 32.9802 478.019 34.8303C478.4 37.0001 479.313 38.9872 480.021 41.0505C480.509 42.459 480.973 43.8827 480.676 45.4206C479.991 48.9761 478.986 52.4478 477.851 55.8814C477.615 56.6047 477.349 57.3965 476.641 57.6935C475.788 58.0437 475.613 58.7289 475.446 59.4293C475.202 60.4267 474.814 61.3632 474.304 62.2311C469.484 70.4384 462.762 76.5748 454.021 80.3511C448.471 82.7493 441.688 80.5643 438.345 75.5394C437.79 74.7019 437.31 74.4354 436.312 74.5725C434.371 74.8389 433.541 74.2375 433.062 72.357C432.826 71.4357 432.719 70.4688 432.628 69.5172C432.285 66.0378 432.711 62.5889 433.29 59.1781C434.508 51.9301 436.465 44.9333 441.033 38.9644C442.182 37.4417 443.484 36.0256 444.718 34.5638ZM464.147 48.6563C464.284 47.1793 463.942 45.4054 463.401 43.6695C463.18 42.9538 462.883 42.261 462.092 41.9641C460.82 41.4844 455.491 43.2431 454.729 44.4156C454.646 44.545 454.6 44.7049 454.554 44.8572C453.953 46.9661 452.902 48.8923 452.08 50.9099C450.534 54.709 449.088 58.5462 448.418 62.6118C448.159 64.1573 448.601 64.5836 450.017 64.2182C453.724 63.2817 457.143 61.6753 460.165 59.338C463.553 56.7342 464.056 52.9274 464.147 48.6563Z" fill="#FDCE5B"/>
<path d="M265.193 45.5193C265.315 47.2247 264.942 48.8159 264.028 50.2472C263.465 51.1228 263.297 52.1049 263.587 53.0109C264.401 55.5538 263.374 57.579 261.798 59.3072C256.43 65.1924 251.854 71.7019 246.769 77.8079C240.29 85.5964 233.94 93.4916 227.552 101.364C223.654 106.168 219.817 111.018 215.919 115.822C214.914 117.063 213.772 118.205 212.318 118.951C210.262 120.002 208.542 118.966 208.45 116.675C208.389 115.144 208.846 113.721 209.311 112.312C209.562 111.551 209.699 111.102 208.77 110.728C207.993 110.424 207.841 109.685 208.031 108.84C208.29 107.668 208.846 106.648 209.387 105.605C211.754 101.067 214.13 96.537 216.505 91.9994C216.855 91.3294 217.145 90.6975 216.84 89.8829C214.8 84.4621 214.754 78.7215 214.145 73.0647C214.168 70.5066 214.259 67.9637 214.861 65.4589C215.485 62.8627 216.787 60.8528 219.452 59.9772C223.22 58.7286 226.753 56.7491 230.834 56.4446C233.59 56.239 234.861 57.145 235.44 59.8326C235.881 61.8806 235.546 63.8601 235.196 65.8472C235.097 66.4258 234.93 66.9816 235.052 67.5754C233.651 69.8518 233.179 72.4785 232.273 74.9605C235.135 71.07 238.226 67.3546 240.389 63.0226C240.625 62.5582 241.211 62.109 240.792 61.4542C241.767 60.2818 242.178 58.8352 242.604 57.4267C243.541 54.3509 245.117 52.0745 248.68 51.7547C249.806 51.6557 250.347 50.4985 250.971 49.6534C253.21 46.6308 255.836 44.1412 259.643 43.2581C261.866 42.748 264.554 43.4408 265.193 45.5193Z" fill="#FDCE5B"/>
<path d="M403.537 91.5426C403.727 86.8984 405.303 82.5739 406.803 78.2571C409.559 70.3239 412.14 62.3298 414.714 54.3281C417.218 46.5395 420.614 39.1544 424.794 32.1272C425.692 30.6198 426.575 29.0971 427.245 27.4678C427.87 25.9527 428.89 25.0924 430.618 25.7015C431.136 25.8842 431.387 25.8005 431.585 25.2904C431.943 24.3539 432.354 23.4327 432.75 22.5039C434.166 20.9355 435.75 19.7402 437.957 19.4052C441.49 18.8722 443.553 21.004 442.624 24.4148C442.457 25.0239 442.206 25.6101 441.993 26.204C440.774 28.0084 440.576 30.1858 439.846 32.1653C437.63 38.1723 434.562 43.7834 431.867 49.5697C425.913 62.3526 420.538 75.3792 415.49 88.5429C414.706 90.5833 414.485 90.7432 412.46 90.1493C411.889 89.9818 411.82 90.3701 411.645 90.6518C411.135 91.4588 410.663 92.2887 410.176 93.111C410.054 93.2176 409.925 93.3089 409.818 93.4231C408.775 94.5803 407.58 95.4635 405.928 94.9838C404.26 94.489 403.773 93.0805 403.537 91.5426Z" fill="#FDCE5B"/>
<path d="M202.771 120.078C202.451 119.347 202.154 118.609 201.796 117.901C201.02 116.386 200.86 115.297 202.687 114.155C204.575 112.982 204.294 110.797 203.685 108.917C202.489 105.201 200.593 101.791 198.82 98.334C196.581 93.9791 194.312 89.6395 192.013 85.315C191.61 84.5537 191.792 84.2872 192.538 84.0969C193.673 83.8152 194.8 83.4954 195.926 83.1832C200.251 90.1572 204.362 97.2301 206.981 105.239C207.796 102.59 208.664 99.9557 209.402 97.2834C211.199 90.7663 212.097 84.0664 213.255 77.4199C213.506 75.9581 213.841 74.5115 214.138 73.065C214.747 78.7142 214.793 84.4623 216.833 89.8831C217.138 90.6901 216.848 91.3296 216.498 91.9996C214.123 96.5296 211.74 101.067 209.379 105.605C208.839 106.64 208.283 107.668 208.024 108.841C207.834 109.693 207.986 110.424 208.763 110.729C209.699 111.102 209.555 111.551 209.303 112.312C208.846 113.721 208.382 115.145 208.443 116.675C208.534 118.966 210.263 120.002 212.311 118.951C213.765 118.205 214.907 117.063 215.912 115.822C219.81 111.018 223.647 106.168 227.545 101.364C233.933 93.4919 240.282 85.5967 246.761 77.8082C251.847 71.7022 256.423 65.1851 261.79 59.3075C263.366 57.5792 264.394 55.5464 263.58 53.0111C263.29 52.1128 263.458 51.123 264.021 50.2475C264.935 48.8162 265.308 47.2249 265.186 45.5195C267.31 46.2656 268.422 47.8264 268.787 49.9886C268.041 50.8033 266.899 50.9175 266.039 51.5342C265.315 52.0443 264.668 52.5924 264.767 53.5898C264.874 54.648 265.688 54.9754 266.549 55.1429C267.698 55.3637 268.856 55.5769 270.021 55.6074C271.003 55.6378 271.17 55.9271 270.904 56.8255C269.465 61.6676 268.209 66.5631 266.617 71.3596C263.717 80.1074 261.737 89.0989 259.308 97.9762C258.418 101.22 257.55 104.455 257.276 107.813C257.146 109.366 257.26 110.828 258.951 111.574C259.392 111.772 259.56 112.114 259.621 112.579C259.689 113.104 259.849 113.622 259.91 114.147C260.085 115.586 260.671 116.812 262.171 117.101C263.648 117.383 264.706 116.462 265.46 115.282C267.889 111.475 269.351 107.234 270.942 103.047C273.051 97.5194 275.182 92.0073 277.543 86.5865C278.22 85.0333 279.225 84.1273 280.801 83.3736C292.907 77.6102 304.867 71.6032 314.43 61.858C314.574 61.7057 314.757 61.5991 314.932 61.4697C316.714 64.576 318.054 65.1851 321.647 64.2486C324.419 63.5329 327.137 62.627 330.068 61.7438C329.801 63.1751 329.116 64.2334 328.591 65.3449C324.761 73.438 320.658 81.4017 317.384 89.746C315.686 94.0781 314.331 98.4939 314.057 103.184C313.958 104.874 314.14 106.48 315.107 107.927C311.605 107.615 310.105 105.118 310.631 101.509C311.925 92.5554 315.48 84.3024 318.16 75.7754C318.952 73.2477 320.14 70.8495 320.612 68.2228C320.764 68.1543 320.833 68.063 320.673 67.9411C320.665 67.9411 320.566 68.0553 320.513 68.1162C316.546 69.1974 312.854 70.9941 309.009 72.3798C308.354 72.6158 308.354 73.1183 308.362 73.6741C308.377 75.0369 307.966 76.2931 307.38 77.5036C307.098 78.0823 306.733 78.7066 305.986 78.6533C305.294 78.6 304.913 77.9985 304.608 77.4275C304.167 76.6052 304.19 75.684 304.144 74.7171C302.705 74.8008 301.692 75.7145 300.543 76.3236C299.926 76.6509 300.269 77.1306 300.284 77.5798C300.451 81.7367 300.497 85.886 299.142 89.9136C298.655 91.3601 297.947 92.6316 296.721 93.667C295.168 91.954 294.703 89.8527 294.612 87.6828C294.513 85.4445 294.559 83.1985 294.62 80.9601C294.642 79.9323 294.323 79.8714 293.546 80.3434C292.084 81.219 290.623 82.0945 289.13 82.9168C288.476 83.2746 288.361 83.8989 288.179 84.4852C284.989 94.5806 282.529 104.874 279.849 115.106C279.484 116.507 279.058 117.87 277.961 118.913C275.251 121.494 271.498 120.421 270.515 116.781C270.432 116.477 270.317 116.188 270.158 115.716C268.932 117.231 267.82 118.654 266.465 119.85C265.285 120.893 263.975 121.7 262.392 121.92C258.578 122.461 255.532 119.842 255.243 115.738C255.19 114.962 255.014 114.338 254.52 113.706C253.614 112.548 253.347 111.178 253.758 109.769C256.72 99.7273 257.382 89.2664 259.369 79.0415C260.055 75.5013 260.664 71.9382 261.311 68.3599C260.717 68.2305 260.664 68.7025 260.481 68.9461C255.829 75.1283 251.215 81.3865 245.551 86.6626C242.384 89.6166 239.978 92.5098 240.039 97.1083C240.062 98.966 239.133 100.793 237.861 102.323C237.283 103.024 237.039 102.864 236.628 102.217C235.691 100.747 235.463 99.0725 235.174 97.1691C233.392 98.806 232.06 100.588 230.804 102.369C226.182 108.924 220.373 114.49 215.592 120.9C214.541 122.301 213.247 123.535 211.534 124.189C209.22 125.065 206.6 124.281 205.946 121.997C205.39 120.032 204.316 119.926 202.771 120.078Z" fill="#593D87"/>
<path d="M444.718 34.5636C443.485 36.0254 442.191 37.4415 441.026 38.9566C436.458 44.9256 434.501 51.9223 433.283 59.1703C432.712 62.5811 432.278 66.03 432.62 69.5094C432.712 70.4611 432.818 71.428 433.054 72.3492C433.534 74.2373 434.364 74.8388 436.305 74.5647C437.303 74.4277 437.782 74.6941 438.338 75.5316C441.68 80.5565 448.464 82.7339 454.014 80.3433C462.754 76.567 469.485 70.4306 474.296 62.2233C474.807 61.3478 475.202 60.4189 475.438 59.4216C475.606 58.7211 475.789 58.0359 476.634 57.6857C477.334 57.3964 477.601 56.597 477.844 55.8737C478.979 52.44 479.984 48.9683 480.669 45.4128C480.966 43.8749 480.501 42.4512 480.014 41.0427C479.298 38.9871 478.385 36.9924 478.012 34.8225C479.215 34.9824 479.717 35.995 480.334 36.802C481.255 38.0125 482.062 39.2992 483.014 40.7077C483.988 38.8805 484.887 37.1598 485.816 35.4544C487.117 33.0714 488.602 30.8102 490.178 28.6099C490.49 28.1683 490.78 27.9019 490.201 27.308C486.417 23.448 486.661 20.1285 490.901 16.7558C491.107 16.5883 491.32 16.436 491.533 16.2761C491.777 17.0527 491.221 17.578 490.955 18.2023C490.566 19.1083 490.467 19.687 491.647 20.3417C493.437 21.3391 494.99 22.7704 496.604 24.0723C497.281 24.6205 497.129 25.4656 496.908 26.166C496.505 27.4299 496.071 28.7013 495.485 29.889C490.071 40.8828 485.176 52.105 480.349 63.3653C479.154 66.1595 477.639 68.7937 476.009 71.3671C475.553 72.0827 475.119 72.8288 474.822 73.6206C474.411 74.7246 474.875 75.661 476.017 75.76C477.304 75.8818 476.992 76.3539 476.664 77.1228C474.73 81.6224 472.781 86.1143 471.312 90.7966C470.627 92.974 470.101 95.1895 469.614 97.4203C469.454 98.1664 469.766 98.7755 469.919 99.4379C467.932 100.214 466.135 99.9327 464.627 98.3872C463.105 96.8264 463.051 94.9611 463.729 93.0349C464.338 91.2914 465.023 89.5708 465.769 87.5761C464.239 88.208 462.96 88.7638 461.658 89.2663C460.067 89.8906 458.422 90.3702 456.725 90.5301C455.803 90.6139 455.575 90.9717 455.643 91.8548C455.826 94.1617 455.522 96.4229 454.722 98.6003C454.524 99.1409 454.273 99.849 453.672 99.9175C452.948 100.001 452.629 99.2551 452.324 98.7146C451.212 96.7579 450.847 94.5957 451.022 92.403C451.129 91.1087 450.657 90.7509 449.522 90.5987C443.401 89.7688 438.064 87.1117 433.123 83.541C431.768 82.5664 430.93 81.1351 429.666 79.4297C430.314 83.4724 430.534 87.0584 430.42 90.6595C430.314 94.0703 430.116 97.466 429.156 100.763C428.89 101.691 428.502 102.559 427.931 103.344C427.169 104.387 426.4 104.349 425.654 103.328C424.436 101.661 424.162 99.7043 424.063 97.7324C423.979 96.0879 424.025 94.4434 424.017 92.7989C424.291 92.7761 424.291 92.5857 424.261 92.3878C424.253 92.3497 424.192 92.3193 424.154 92.2888C424.116 92.4715 424.078 92.6467 424.04 92.8218C423.294 93.743 423.111 94.9231 422.639 95.9661C421.459 98.5623 419.442 99.8109 417.15 99.3236C414.622 98.7907 413.389 97.0091 413.45 93.9942C413.457 93.7354 413.427 93.4765 413.412 93.1491C412.277 93.4004 411.189 93.8724 410.161 93.0958C410.648 92.2736 411.12 91.4437 411.63 90.6367C411.805 90.3626 411.874 89.9667 412.445 90.1342C414.47 90.728 414.691 90.5682 415.475 88.5278C420.523 75.3641 425.89 62.3451 431.851 49.5545C434.547 43.7683 437.615 38.1572 439.83 32.1502C440.561 30.1707 440.759 27.9932 441.977 26.1888C442.107 28.4424 441.087 30.4904 440.805 32.744C442.411 32.7897 443.782 33.2313 444.718 34.5636Z" fill="#593D87"/>
<path d="M102.311 127.798C109.939 127.79 116.715 124.669 123.118 121.174C127.602 118.723 131.927 115.502 134.767 110.919C135.711 109.389 136.183 107.698 136.107 105.886C136.03 104.029 135.201 103.313 133.351 103.557C132.962 103.61 132.62 103.739 132.384 103.305C131.508 101.691 130.206 102.057 128.927 102.613C126.087 103.861 123.377 105.353 120.72 106.937C118.108 108.49 115.55 110.15 112.794 111.444C112.2 111.726 111.47 112.365 110.891 111.787C110.297 111.193 110.8 110.363 111.096 109.701C112.657 106.153 114.835 102.986 117.362 100.085C121.534 95.2961 125.76 90.5605 130.008 85.8478C132.049 83.5866 134.226 81.4625 136.868 79.8941C137.645 79.4297 138.139 79.2089 138.444 80.526C139.114 83.4191 139.989 83.8835 142.883 83.244C143.431 83.1222 143.735 83.1603 144.07 83.6551C145.052 85.1017 146.453 85.3377 148.029 84.8353C151.075 83.8683 153.739 82.2314 156.1 80.092C160.081 76.4757 162.792 71.9685 165.114 67.1949C165.517 66.365 165.692 65.421 165.982 64.515C167.74 65.7864 167.855 65.9691 166.796 67.7278C163.15 73.811 159.647 79.9779 157.066 86.6016C155.148 91.5123 153.283 96.4457 151.387 101.372C149.834 105.407 147.991 109.312 145.974 113.134C145.7 113.652 145.395 114.162 145.159 114.695C144.748 115.609 144.139 116.583 144.923 117.535C145.753 118.54 146.682 117.664 147.557 117.474H147.55C147.77 118.167 147.359 118.707 147.123 119.286C144.717 125.263 142.274 131.232 140.972 137.574C140.911 137.886 140.842 138.206 140.812 138.518C140.728 139.477 140.819 140.413 141.9 140.741C142.921 141.045 143.476 140.314 143.926 139.553C146.035 136.013 147.413 132.138 149.148 128.415C149.369 127.95 149.407 127.364 149.994 127.006C150.519 127.577 151.014 128.201 151.585 128.727C153.069 130.09 155.133 130.09 156.671 128.788C158.406 127.326 159.32 125.316 160.15 123.298C162.982 116.439 166.606 109.967 169.918 103.344C171.326 100.534 172.644 97.6867 174.052 94.7479C174.821 95.5017 175.049 96.5067 175.407 97.3974C177.021 101.44 179.062 105.216 181.795 108.612C181.993 108.856 182.214 109.107 182.145 109.465C181.612 109.274 181.262 109.107 181.14 109.998C180.82 112.442 180.082 114.771 178.772 116.88C178.559 117.223 178.498 117.786 177.95 117.733C177.425 117.687 177.425 117.124 177.234 116.774C175.529 113.568 175.301 110.074 175.301 106.541C175.301 105.704 175.301 104.859 175.301 103.747C172.979 109.29 170.634 114.566 168.639 119.994C167.116 124.136 165.54 128.262 163.964 132.389C163.447 133.736 162.784 135.008 161.947 136.188C159.213 140.033 155.034 140.246 152.003 136.675C151.844 136.485 151.691 136.287 151.463 135.998C150.268 137.505 149.187 138.952 148.022 140.33C146.796 141.784 145.395 143.002 143.347 143.078C139.677 143.208 137.317 140.421 138.071 136.622C140.066 126.557 142.045 116.492 144.816 106.602C146.377 101.021 147.991 95.4636 149.575 89.883C149.704 89.4109 150.321 88.6039 149.187 88.6496C145.608 88.7943 142.403 87.4314 139.16 86.2513C137.66 85.7032 136.571 85.7717 135.338 86.967C130.549 91.6112 125.828 96.3011 121.862 101.699C121.809 101.79 121.763 101.882 121.71 101.973C121.824 101.95 121.946 101.927 122.06 101.905C125.661 101.554 129.239 100.953 132.879 101.113C134.386 101.181 135.855 101.394 137.271 101.844C142.114 103.389 144.124 108.094 141.885 112.746C140.066 116.53 136.944 119.096 133.526 121.349C129.178 124.22 124.252 125.552 119.243 126.61C118.245 126.823 117.644 127.067 117.735 128.163C117.743 128.27 117.735 128.384 117.697 128.483C117.263 129.572 117.263 131.14 115.672 131.178C114.18 131.216 113.624 129.854 113.403 128.681C113.183 127.509 112.589 127.585 111.736 127.638C108.721 127.813 108.729 127.79 108.767 130.805C108.805 133.835 109.01 136.881 108.12 139.85C107.701 141.251 107.031 142.492 106.034 143.573C105.257 144.41 104.678 144.35 103.985 143.436C101.846 140.589 101.831 137.284 101.899 133.972C101.968 131.932 102.181 129.869 102.311 127.798Z" fill="#593D87"/>
<path d="M320.177 106.229C321.045 104.889 321.928 103.557 322.765 102.202C323.04 101.76 323.23 101.661 323.763 101.874C325.864 102.712 327.471 101.806 328.856 100.275C330.744 98.1818 332.077 95.7531 332.99 93.1188C336.713 82.3839 341.502 72.0905 345.903 61.6296C347.266 58.3939 349.253 56.2012 352.74 55.0592C358.709 53.1025 364.441 50.514 370.136 47.6056C369.733 48.169 369.314 48.7248 368.918 49.3034C364.799 55.3713 362.614 62.1854 361.282 69.3192C360.802 71.8849 360.566 74.4659 360.909 77.1001C361.297 80.0313 362.523 81.455 365.416 81.9651C365.896 82.0489 366.162 82.2621 366.375 82.6808C368.713 87.3326 375.443 88.4594 379.052 87.9036C385.043 86.99 389.558 83.4269 393.944 79.6582C397.545 76.5672 401.176 73.4914 403.948 69.5628C406.003 66.6545 407.534 63.5178 408.074 59.9547C408.135 59.5359 408.105 59.0029 408.546 58.8278C410.914 57.9142 410.769 55.7977 410.914 53.8791C411.188 50.3388 410.663 46.8823 409.612 43.4943C412.147 38.4542 414.843 33.5131 418.527 29.1963C420.499 26.8818 422.532 24.6206 425.166 23.037C427.587 21.5828 430.107 21.1184 432.742 22.4965C432.353 23.4253 431.942 24.3465 431.577 25.283C431.379 25.7931 431.128 25.8769 430.61 25.6941C428.882 25.0851 427.862 25.9453 427.237 27.4604C426.567 29.0897 425.684 30.6124 424.786 32.1199C420.606 39.1471 417.21 46.5321 414.705 54.3207C412.132 62.3224 409.559 70.3165 406.795 78.2498C405.295 82.5666 403.719 86.8834 403.529 91.5352C400.385 90.7891 398.915 88.5279 399.715 85.414C400.263 83.2823 401.016 81.2038 401.686 79.1025C401.907 78.9274 401.983 78.7218 401.816 78.463C401.679 78.5772 401.542 78.6989 401.405 78.8131C398.443 81.9499 395.504 85.1247 391.896 87.561C384.693 92.4184 377.049 94.2456 368.796 90.5226C363.048 87.9264 359.942 83.2442 359.005 77.0544C358.237 71.9915 359.059 67.096 360.505 62.2539C360.665 61.7209 361.069 61.2108 360.825 60.4952C358.221 61.7514 355.465 62.7259 353.135 64.3172C351.727 65.2841 350.798 67.1418 350.912 69.1365C351.209 74.1766 350.912 79.1406 349.009 83.8913C348.636 84.8126 348.126 86.2591 347.273 86.1678C346.299 86.0612 346.078 84.5766 345.857 83.5487C345.621 82.4143 345.476 81.2647 345.271 80.0161C344.608 80.3739 344.509 80.983 344.289 81.455C342.461 85.414 340.634 89.3806 338.876 93.3777C338.03 95.2963 336.896 96.7885 334.65 97.0474C333.881 97.1387 333.683 97.8087 333.356 98.334C331.628 101.082 330.15 104.014 327.775 106.298C325.308 108.688 322.568 108.643 320.177 106.229Z" fill="#593D87"/>
<path d="M602.453 8.63997C602.621 11.3275 600.855 12.9111 599.164 14.6165C587.843 26.1052 577.184 38.1573 568.437 51.7777C566.944 54.1075 565.285 56.361 564.363 59.0105C563.099 62.6574 566.046 66.251 569.708 65.5201C571.52 65.1622 572.814 63.9288 573.971 62.566C574.581 61.8428 575.037 61.325 576.179 61.9645C577.139 62.5051 578.334 62.2919 579.316 61.4849C580.527 60.4951 581.471 59.2694 582.422 58.0588C584.569 55.3485 586.93 53.5517 589.709 52.6153C589.541 54.5567 588.856 56.3839 588.985 58.3177C589.069 59.5511 589.145 60.6855 590.523 61.1651C590.98 61.325 591.033 61.6829 591.003 62.0635C590.721 65.8626 592.084 69.1517 594.162 72.2123C590.835 73.6969 588.498 72.6462 587.364 69.1364C586.922 67.7813 586.503 66.4184 586.024 64.9109C584.714 66.2205 583.488 67.5071 581.555 67.53C580.9 67.5376 581.052 68.0934 581.022 68.4969C580.885 70.1033 580.557 71.6565 579.651 73.0269C579.164 73.7578 578.54 74.3516 577.565 74.2603C576.507 74.1613 576.21 73.2857 575.966 72.4863C575.372 70.5677 575.479 68.6111 575.989 66.4489C570.721 68.5273 565.97 71.763 560.001 70.6667C560.107 71.8087 560.214 73.0421 560.328 74.2755C560.564 76.8032 560.336 79.2776 559.399 81.6453C559.087 82.4219 558.691 83.267 557.633 83.2594C556.582 83.2518 556.187 82.4067 555.874 81.6301C554.55 78.3563 554.77 74.9607 555.212 71.5575C555.242 71.352 555.326 71.1464 555.379 70.9408C555.562 70.2023 555.326 69.7303 554.565 69.4943C553.682 69.2278 553.735 70.0044 553.575 70.4003C552.235 73.7578 550.941 77.1382 549.624 80.5109C549.19 81.6225 548.619 82.6503 547.599 83.3203C545.802 84.508 543.997 84.4623 542.216 83.2518C548.367 70.5601 554.131 57.701 559.46 44.644C562.498 37.2056 564.371 29.3714 566.762 21.7123C567.066 20.7453 567.234 19.7175 566.457 18.8268C566.076 18.3928 566.198 18.0806 566.678 17.8218C568.985 16.6113 569.754 14.7003 569.974 12.0965C570.241 8.95211 571.406 5.89152 571.101 2.64819C573.979 4.82564 574.131 8.01568 574.116 11.1676C574.078 18.5451 571.375 24.9632 566.739 30.6124C566.046 31.4575 566.054 32.4853 565.856 33.4598C564.729 38.8806 563.046 44.1415 561.272 49.3719C561.09 49.9125 560.945 50.4607 561.067 51.1992C561.615 50.5901 562.148 49.981 562.711 49.3795C572.434 38.9187 581.09 27.4985 591.528 17.6848C594.977 14.4414 598.296 11.0458 602.453 8.63997Z" fill="#593D87"/>
<path d="M481.232 90.6518C484.24 91.0858 485.937 89.388 487.072 86.9441C489.013 82.7871 490.186 78.3409 491.815 74.0621C494.457 67.1415 497.662 60.4721 500.654 53.7038C500.791 53.3916 500.837 52.8892 501.279 52.8663C501.735 52.8435 501.819 53.3307 501.964 53.6429C505.215 60.6853 509.691 66.8826 514.952 72.5318C516.947 74.6712 518.858 76.9553 521.987 77.5111C522.604 77.6253 523 78.1277 523.304 78.615C524.5 80.5183 525.946 82.2161 527.469 83.853C521.683 84.1347 517.548 80.4955 512.935 77.7166C512.737 78.318 512.577 78.9043 512.356 79.4753C512.158 79.9854 511.838 80.4727 511.245 80.5031C510.674 80.5336 510.255 80.1453 509.958 79.6809C509.257 78.5921 509.044 77.3435 509.318 76.1482C509.592 74.9681 509.166 74.2677 508.374 73.5368C507.636 72.8516 506.996 72.0522 506.174 71.1614C505.527 75.4097 505.93 79.7494 503.623 83.7617C500.54 78.7901 500.715 73.3693 500.586 67.5755C499.101 71.1309 497.784 74.2982 496.467 77.4578C494.64 81.8355 492.561 86.099 490.277 90.256C489.683 91.3447 488.968 92.342 487.871 92.9815C485.435 94.4205 482.61 93.4231 481.232 90.6518Z" fill="#593D87"/>
<path d="M160.699 55.9805C160.074 57.5184 158.986 57.9448 157.311 57.861C152.019 57.5869 147.116 59.3609 142.297 61.2414C138.277 62.8098 134.295 64.4923 130.397 66.3272C120.446 71.0018 112.574 78.3107 105.295 86.3505C100.819 91.2993 96.9512 96.72 92.8856 101.996C90.868 104.623 90.0077 107.31 89.3453 110.226C88.5383 113.797 88.7287 117.421 89.7336 120.976C89.8174 121.281 89.825 121.601 89.8707 121.913C87.5714 119.393 86.7415 116.294 86.3989 113.013C85.5843 105.232 88.6297 98.7833 93.2815 92.8448C98.1389 86.655 104.161 81.752 110.374 77.0317C116.571 72.3342 122.57 67.3626 129.331 63.4569C135.437 59.9319 141.642 56.6581 148.715 55.5008C152.727 54.8384 156.747 54.6253 160.699 55.9805Z" fill="#593D87"/>
<path d="M554.694 13.5507C554.755 15.4236 554.93 17.2813 555.776 18.9867C556.095 19.6339 555.943 19.8623 555.326 20.1744C553.925 20.8825 552.585 21.6895 552.624 23.5776C552.631 23.7603 552.471 23.9735 552.342 24.141C547.675 30.3688 545.041 37.6168 542.17 44.7126C538.775 53.095 535.638 61.584 533.43 70.3775C533.331 70.781 533.24 71.1921 533.118 71.7403C532.28 65.01 528.329 59.8253 525.268 54.2446C523.731 51.4429 522.177 48.6487 520.594 45.8774C520.008 44.8496 520.091 44.2634 521.355 43.9512C522.383 43.7 523.228 42.9386 524.302 42.7559C526.966 47.4686 529.182 52.4174 531.58 57.4042C532.22 56.9626 532.326 56.3687 532.539 55.8739C537.359 44.4918 543.099 33.5665 548.802 22.6259C549.89 20.5322 550.895 18.233 553.56 17.5478C554.085 17.4107 554.062 16.9159 554.085 16.4971C554.146 15.4769 554.306 14.4948 554.694 13.5507Z" fill="#593D87"/>
<path d="M529.509 85.2235C531.549 85.6651 532.303 84.1576 531.991 82.4065C531.793 81.3102 531.549 80.2062 531.199 79.1555C530.59 77.3207 530.719 75.7143 532.409 74.3819C532.782 74.8615 532.562 75.4478 532.6 75.9731C532.744 77.6557 533.94 78.5313 535.47 77.8384C536.81 77.2294 536.787 77.7775 536.574 78.7901C536.178 80.663 536.444 82.4903 536.924 84.3099C534.64 86.099 532.173 86.4797 529.509 85.2235Z" fill="#593D87"/>
<path d="M240.686 61.3889C241.105 62.0512 240.518 62.4928 240.282 62.9572C238.113 67.2893 235.029 71.0046 232.167 74.8951C233.073 72.4131 233.545 69.7865 234.945 67.51C236.856 65.4696 238.767 63.4293 240.686 61.3889Z" fill="#593D87"/>
<path d="M373.89 43.1819C373.524 43.6235 373.189 44.1032 372.786 44.4991C372.291 44.9863 372.062 44.6666 371.963 44.1412C372.123 43.9205 372.557 43.9052 372.473 43.4941L372.458 43.5017C372.793 43.6311 373.037 43.5702 373.113 43.1743L373.105 43.1819C373.364 43.1819 373.631 43.1819 373.89 43.1819Z" fill="#593D87"/>
<path d="M182.145 109.465C182.26 109.632 182.374 109.792 182.496 109.96C182.374 109.792 182.26 109.625 182.145 109.465Z" fill="#593D87"/>
<path d="M393.471 56.1554C393.235 59.4444 393.014 62.5735 391.91 65.5504C391.05 67.8649 389.55 69.5551 387.213 70.4687C385.081 71.2986 382.881 71.9076 380.605 72.1588C378.64 72.3796 378.039 71.8086 378.237 69.8139C378.602 66.1671 380.323 63.038 382.135 59.9545C383.353 57.8913 384.921 56.0564 385.904 53.8485C386.033 53.5592 386.147 53.209 386.497 53.1481C388.111 52.8892 389.444 51.9375 390.913 51.3513C392.192 50.8412 392.9 51.2752 393.106 52.5162C393.319 53.78 393.365 55.059 393.471 56.1554Z" fill="#593D87"/>
<path d="M298.151 57.8077C294.733 60.343 291.238 62.6879 287.355 64.6598C287.059 62.8707 287.576 61.3327 287.63 59.7644C287.645 59.3913 287.896 59.2543 288.246 59.1705C291.49 58.3711 294.725 57.5869 298.151 57.8077Z" fill="#593D87"/>
<path d="M191.906 68.7327C189.394 70.5676 186.782 70.9787 184.133 71.268C183.95 71.2909 183.592 71.1843 183.569 71.0777C183.318 69.9661 184.049 69.0449 184.255 68.0171C184.376 67.4004 184.818 67.2177 185.442 67.2101C187.62 67.1568 189.63 67.7354 191.906 68.7327Z" fill="#593D87"/>
<path d="M147.565 117.474C147.588 117.436 147.595 117.383 147.634 117.352C147.649 117.337 147.694 117.352 147.732 117.352C147.672 117.398 147.611 117.436 147.565 117.474Z" fill="#593D87"/>
<path d="M523.838 29.2876C520.183 30.658 516.879 31.8762 513.369 32.47C512.509 32.6147 512.364 32.135 512.554 31.4117C513.072 29.4246 514.412 28.1075 516.079 27.0645C516.315 26.9198 516.704 26.9198 516.993 26.9883C519.209 27.5136 521.371 28.2217 523.838 29.2876Z" fill="#593D87"/>
<path d="M600.954 25.047C600.832 26.6991 600.619 28.3055 600.086 29.8435C599.842 30.5439 599.53 31.252 598.906 31.7088C598.167 32.2493 597.185 32.9345 596.469 32.3483C595.929 31.9067 596.812 31.054 597.177 30.4601C598.335 28.5948 599.439 26.6915 600.954 25.047Z" fill="#593D87"/>
<path d="M464.147 48.6561C464.056 52.9273 463.554 56.734 460.173 59.3378C457.151 61.6675 453.724 63.274 450.024 64.218C448.601 64.5759 448.167 64.1495 448.426 62.6116C449.103 58.546 450.542 54.7088 452.088 50.9097C452.91 48.8922 453.961 46.966 454.562 44.857C454.608 44.7048 454.653 44.5449 454.737 44.4154C455.498 43.2506 460.82 41.4843 462.099 41.9639C462.891 42.2609 463.188 42.9537 463.409 43.6693C463.942 45.4052 464.277 47.1715 464.147 48.6561Z" fill="#593D87"/>
</svg>
