<svg width="24" height="23" viewBox="0 0 24 23" fill="none" xmlns="http://www.w3.org/2000/svg">
<path d="M13.1667 7.33337V16.6667C13.1667 17.595 12.7979 18.4852 12.1415 19.1416C11.4852 19.798 10.5949 20.1667 9.66667 20.1667H7.135C6.85978 20.9455 6.3181 21.6018 5.60573 22.0198C4.89335 22.4378 4.05614 22.5904 3.24208 22.4508C2.42802 22.3112 1.68953 21.8883 1.15715 21.2568C0.624763 20.6253 0.332764 19.826 0.332764 19C0.332764 18.1741 0.624763 17.3747 1.15715 16.7433C1.68953 16.1118 2.42802 15.6889 3.24208 15.5493C4.05614 15.4096 4.89335 15.5623 5.60573 15.9803C6.3181 16.3983 6.85978 17.0546 7.135 17.8334H9.66667C9.97608 17.8334 10.2728 17.7105 10.4916 17.4917C10.7104 17.2729 10.8333 16.9761 10.8333 16.6667V7.33337C10.8333 6.40512 11.2021 5.51488 11.8585 4.8585C12.5148 4.20212 13.4051 3.83337 14.3333 3.83337H17.8333V0.333374L23.6667 5.00004L17.8333 9.66671V6.16671H14.3333C14.0239 6.16671 13.7272 6.28962 13.5084 6.50842C13.2896 6.72721 13.1667 7.02396 13.1667 7.33337ZM3.83333 20.1667C4.14275 20.1667 4.4395 20.0438 4.65829 19.825C4.87708 19.6062 5 19.3095 5 19C5 18.6906 4.87708 18.3939 4.65829 18.1751C4.4395 17.9563 4.14275 17.8334 3.83333 17.8334C3.52391 17.8334 3.22717 17.9563 3.00837 18.1751C2.78958 18.3939 2.66667 18.6906 2.66667 19C2.66667 19.3095 2.78958 19.6062 3.00837 19.825C3.22717 20.0438 3.52391 20.1667 3.83333 20.1667Z" fill="white"/>
</svg>
