<svg width="24" height="24" viewBox="0 0 24 24" fill="none" xmlns="http://www.w3.org/2000/svg">
<path d="M0.333008 21.3335H23.6663V23.6668H0.333008V21.3335ZM2.66634 12.0002H4.99967V20.1668H2.66634V12.0002ZM8.49967 12.0002H10.833V20.1668H8.49967V12.0002ZM13.1663 12.0002H15.4997V20.1668H13.1663V12.0002ZM18.9997 12.0002H21.333V20.1668H18.9997V12.0002ZM0.333008 6.16683L11.9997 0.333496L23.6663 6.16683V10.8335H0.333008V6.16683ZM11.9997 7.3335C12.3091 7.3335 12.6058 7.21058 12.8246 6.99179C13.0434 6.77299 13.1663 6.47625 13.1663 6.16683C13.1663 5.85741 13.0434 5.56066 12.8246 5.34187C12.6058 5.12308 12.3091 5.00016 11.9997 5.00016C11.6903 5.00016 11.3935 5.12308 11.1747 5.34187C10.9559 5.56066 10.833 5.85741 10.833 6.16683C10.833 6.47625 10.9559 6.77299 11.1747 6.99179C11.3935 7.21058 11.6903 7.3335 11.9997 7.3335Z" fill="#508FF4"/>
</svg>
