<svg width="24" height="24" viewBox="0 0 24 24" fill="none" xmlns="http://www.w3.org/2000/svg">
<path d="M12 23.6668C5.55651 23.6668 0.333344 18.4437 0.333344 12.0002C0.333344 5.55666 5.55651 0.333496 12 0.333496C18.4435 0.333496 23.6667 5.55666 23.6667 12.0002C23.6667 18.4437 18.4435 23.6668 12 23.6668ZM12 21.3335C14.4754 21.3335 16.8493 20.3502 18.5997 18.5998C20.35 16.8495 21.3333 14.4755 21.3333 12.0002C21.3333 9.52481 20.35 7.15084 18.5997 5.4005C16.8493 3.65016 14.4754 2.66683 12 2.66683C9.52466 2.66683 7.15069 3.65016 5.40035 5.4005C3.65001 7.15084 2.66668 9.52481 2.66668 12.0002C2.66668 14.4755 3.65001 16.8495 5.40035 18.5998C7.15069 20.3502 9.52466 21.3335 12 21.3335ZM10.8333 16.6668H7.33334V7.3335H10.8333V5.00016H13.1667V7.3335H14.3333C14.875 7.3335 15.406 7.48433 15.8667 7.7691C16.3275 8.05387 16.6999 8.46131 16.9421 8.94579C17.1843 9.43027 17.2869 9.97263 17.2382 10.5121C17.1896 11.0516 16.9917 11.5668 16.6667 12.0002C16.9917 12.4335 17.1896 12.9488 17.2382 13.4882C17.2869 14.0277 17.1843 14.5701 16.9421 15.0545C16.6999 15.539 16.3275 15.9465 15.8667 16.2312C15.406 16.516 14.875 16.6668 14.3333 16.6668H13.1667V19.0002H10.8333V16.6668ZM9.66668 13.1668V14.3335H14.3333C14.4881 14.3335 14.6364 14.272 14.7458 14.1626C14.8552 14.0532 14.9167 13.9049 14.9167 13.7502C14.9167 13.5955 14.8552 13.4471 14.7458 13.3377C14.6364 13.2283 14.4881 13.1668 14.3333 13.1668H9.66668ZM9.66668 9.66683V10.8335H14.3333C14.4881 10.8335 14.6364 10.772 14.7458 10.6626C14.8552 10.5532 14.9167 10.4049 14.9167 10.2502C14.9167 10.0955 14.8552 9.94708 14.7458 9.83768C14.6364 9.72829 14.4881 9.66683 14.3333 9.66683H9.66668Z" fill="#508FF4"/>
</svg>
