<svg width="42" height="30" viewBox="0 0 42 30" fill="none" xmlns="http://www.w3.org/2000/svg">
<path d="M35.0465 2.7261C32.4631 1.59856 29.6927 0.767827 26.7961 0.292035C26.7433 0.282852 26.6907 0.3058 26.6635 0.351697C26.3072 0.954467 25.9125 1.74083 25.6362 2.35891C22.5207 1.91525 19.4212 1.91525 16.3696 2.35891C16.0932 1.72709 15.6842 0.954467 15.3263 0.351697C15.2991 0.307332 15.2464 0.284384 15.1937 0.292035C12.2987 0.766307 9.52833 1.59703 6.94327 2.7261C6.92089 2.73528 6.90171 2.75059 6.88898 2.77047C1.63418 10.2379 0.194666 17.5218 0.900842 24.7154C0.904037 24.7505 0.924807 24.7842 0.953565 24.8056C4.42053 27.2274 7.77889 28.6977 11.0749 29.6722C11.1276 29.6875 11.1835 29.6692 11.2171 29.6278C11.9968 28.6151 12.6918 27.5472 13.2877 26.4242C13.3228 26.3585 13.2893 26.2804 13.2174 26.2544C12.115 25.8566 11.0653 25.3717 10.0555 24.8209C9.97568 24.7766 9.96929 24.6679 10.0428 24.6159C10.2552 24.4644 10.4678 24.3068 10.6707 24.1477C10.7074 24.1187 10.7585 24.1125 10.8017 24.1309C17.4352 27.0117 24.6168 27.0117 31.1721 24.1309C31.2153 24.111 31.2664 24.1172 31.3047 24.1462C31.5077 24.3053 31.7202 24.4644 31.9342 24.6159C32.0077 24.6679 32.0029 24.7766 31.9231 24.8209C30.9133 25.3824 29.8636 25.8566 28.7596 26.2529C28.6877 26.2789 28.6558 26.3585 28.6909 26.4242C29.2996 27.5456 29.9946 28.6135 30.7599 29.6263C30.7919 29.6692 30.8494 29.6875 30.9021 29.6722C34.2141 28.6977 37.5724 27.2274 41.0394 24.8056C41.0698 24.7842 41.089 24.7521 41.0921 24.7169C41.9373 16.4003 39.6766 9.17616 35.0992 2.77199C35.088 2.75059 35.0689 2.73528 35.0465 2.7261ZM14.2783 20.3352C12.2811 20.3352 10.6355 18.5912 10.6355 16.4493C10.6355 14.3074 12.2492 12.5634 14.2783 12.5634C16.3233 12.5634 17.9529 14.3227 17.921 16.4493C17.921 18.5912 16.3073 20.3352 14.2783 20.3352ZM27.7467 20.3352C25.7496 20.3352 24.104 18.5912 24.104 16.4493C24.104 14.3074 25.7176 12.5634 27.7467 12.5634C29.7917 12.5634 31.4214 14.3227 31.3894 16.4493C31.3894 18.5912 29.7917 20.3352 27.7467 20.3352Z" fill="white"/>
</svg>
