<svg width="24" height="22" viewBox="0 0 24 22" fill="none" xmlns="http://www.w3.org/2000/svg">
<path d="M19 5.16667H22.5C22.8094 5.16667 23.1062 5.28958 23.325 5.50838C23.5438 5.72717 23.6667 6.02391 23.6667 6.33333V20.3333C23.6667 20.6428 23.5438 20.9395 23.325 21.1583C23.1062 21.3771 22.8094 21.5 22.5 21.5H1.50001C1.19059 21.5 0.893845 21.3771 0.675052 21.1583C0.45626 20.9395 0.333344 20.6428 0.333344 20.3333V1.66667C0.333344 1.35725 0.45626 1.0605 0.675052 0.841709C0.893845 0.622916 1.19059 0.5 1.50001 0.5H19V5.16667ZM2.66668 7.5V19.1667H21.3333V7.5H2.66668ZM2.66668 2.83333V5.16667H16.6667V2.83333H2.66668ZM15.5 12.1667H19V14.5H15.5V12.1667Z" fill="#508FF4"/>
</svg>
