<svg width="27" height="23" viewBox="0 0 27 23" fill="none" xmlns="http://www.w3.org/2000/svg">
<path d="M4.83335 8.50016C5.14277 8.50016 5.43952 8.62308 5.65831 8.84187C5.8771 9.06066 6.00002 9.35741 6.00002 9.66683C7.83302 9.66413 9.61317 10.2808 11.0517 11.4168H13.5834C15.1385 11.4168 16.535 12.0935 17.4964 13.1668H21.1667C22.2695 13.1665 23.3498 13.4788 24.2823 14.0675C25.2148 14.6563 25.9614 15.4972 26.4354 16.493C23.6762 20.1342 19.209 22.5002 14.1667 22.5002C10.9117 22.5002 8.15835 21.7967 5.93002 20.5658C5.84841 20.7911 5.6993 20.9856 5.50304 21.123C5.30678 21.2604 5.07292 21.3339 4.83335 21.3335H1.33335C1.02393 21.3335 0.727188 21.2106 0.508396 20.9918C0.289603 20.773 0.166687 20.4762 0.166687 20.1668V9.66683C0.166687 9.35741 0.289603 9.06066 0.508396 8.84187C0.727188 8.62308 1.02393 8.50016 1.33335 8.50016H4.83335ZM6.00119 12.0002L6.00002 17.8592L6.05252 17.8965C8.14669 19.3665 10.8744 20.1668 14.1667 20.1668C17.6714 20.1668 20.9322 18.8182 23.3075 16.5152L23.4627 16.36L23.3227 16.2433C22.7718 15.8119 22.104 15.5558 21.4059 15.5083L21.1667 15.5002H18.7039C18.7879 15.8758 18.8334 16.2655 18.8334 16.6668V17.8335H8.33335V15.5002L16.255 15.499L16.2154 15.408C15.9918 14.9408 15.6479 14.5415 15.2189 14.2512C14.79 13.9609 14.2915 13.79 13.7747 13.756L13.5834 13.7502H10.165C9.62289 13.1957 8.97534 12.7552 8.26046 12.4547C7.54559 12.1541 6.77783 11.9996 6.00235 12.0002H6.00119ZM3.66669 10.8335H2.50002V19.0002H3.66669V10.8335ZM20 3.8335C20.9283 3.8335 21.8185 4.20224 22.4749 4.85862C23.1313 5.515 23.5 6.40524 23.5 7.3335C23.5 8.26175 23.1313 9.15199 22.4749 9.80837C21.8185 10.4647 20.9283 10.8335 20 10.8335C19.0718 10.8335 18.1815 10.4647 17.5251 9.80837C16.8688 9.15199 16.5 8.26175 16.5 7.3335C16.5 6.40524 16.8688 5.515 17.5251 4.85862C18.1815 4.20224 19.0718 3.8335 20 3.8335ZM20 6.16683C19.6906 6.16683 19.3939 6.28975 19.1751 6.50854C18.9563 6.72733 18.8334 7.02408 18.8334 7.3335C18.8334 7.64292 18.9563 7.93966 19.1751 8.15845C19.3939 8.37725 19.6906 8.50016 20 8.50016C20.3094 8.50016 20.6062 8.37725 20.825 8.15845C21.0438 7.93966 21.1667 7.64292 21.1667 7.3335C21.1667 7.02408 21.0438 6.72733 20.825 6.50854C20.6062 6.28975 20.3094 6.16683 20 6.16683ZM11.8334 0.333496C12.7616 0.333496 13.6519 0.702245 14.3082 1.35862C14.9646 2.015 15.3334 2.90524 15.3334 3.8335C15.3334 4.76175 14.9646 5.65199 14.3082 6.30837C13.6519 6.96475 12.7616 7.3335 11.8334 7.3335C10.9051 7.3335 10.0149 6.96475 9.35848 6.30837C8.7021 5.65199 8.33335 4.76175 8.33335 3.8335C8.33335 2.90524 8.7021 2.015 9.35848 1.35862C10.0149 0.702245 10.9051 0.333496 11.8334 0.333496ZM11.8334 2.66683C11.5239 2.66683 11.2272 2.78975 11.0084 3.00854C10.7896 3.22733 10.6667 3.52408 10.6667 3.8335C10.6667 4.14292 10.7896 4.43966 11.0084 4.65845C11.2272 4.87725 11.5239 5.00016 11.8334 5.00016C12.1428 5.00016 12.4395 4.87725 12.6583 4.65845C12.8771 4.43966 13 4.14292 13 3.8335C13 3.52408 12.8771 3.22733 12.6583 3.00854C12.4395 2.78975 12.1428 2.66683 11.8334 2.66683Z" fill="#508FF4"/>
</svg>
