<svg width="24" height="22" viewBox="0 0 24 22" fill="none" xmlns="http://www.w3.org/2000/svg">
<path d="M2.66667 2.83333V19.1667H21.3333V2.83333H2.66667ZM1.5 0.5H22.5C22.8094 0.5 23.1062 0.622916 23.325 0.841709C23.5438 1.0605 23.6667 1.35725 23.6667 1.66667V20.3333C23.6667 20.6428 23.5438 20.9395 23.325 21.1583C23.1062 21.3771 22.8094 21.5 22.5 21.5H1.5C1.19058 21.5 0.893833 21.3771 0.675041 21.1583C0.456248 20.9395 0.333332 20.6428 0.333332 20.3333V1.66667C0.333332 1.35725 0.456248 1.0605 0.675041 0.841709C0.893833 0.622916 1.19058 0.5 1.5 0.5ZM15.2585 8.42517L13.1667 6.33333H19V12.1667L16.9082 10.0748L12.4002 14.5828L9.92567 12.1083L6.62517 15.4077L4.9755 13.758L9.92567 8.80783L12.4002 11.2835L15.2585 8.42517Z" fill="white"/>
</svg>
