<svg width="21" height="26" viewBox="0 0 21 26" fill="none" xmlns="http://www.w3.org/2000/svg">
<path d="M0.9135 2.13033L10.5 0L20.0865 2.13033C20.3456 2.18792 20.5773 2.33213 20.7433 2.53914C20.9094 2.74615 21 3.0036 21 3.269V14.9205C20.9999 16.0729 20.7153 17.2074 20.1715 18.2233C19.6277 19.2393 18.8415 20.1053 17.8827 20.7445L10.5 25.6667L3.11733 20.7445C2.15865 20.1054 1.37254 19.2396 0.828739 18.2239C0.284942 17.2081 0.000275749 16.0738 0 14.9217V3.269C4.55441e-05 3.0036 0.0905776 2.74615 0.256654 2.53914C0.422731 2.33213 0.654426 2.18792 0.9135 2.13033V2.13033ZM2.33333 4.20467V14.9205C2.33335 15.6887 2.523 16.445 2.88547 17.1223C3.24794 17.7996 3.77201 18.377 4.41117 18.8032L10.5 22.8632L16.5888 18.8032C17.2278 18.3771 17.7518 17.7999 18.1143 17.1229C18.4767 16.4458 18.6665 15.6897 18.6667 14.9217V4.20467L10.5 2.39167L2.33333 4.20467ZM10.5 11.6667C9.72645 11.6667 8.98459 11.3594 8.4376 10.8124C7.89062 10.2654 7.58333 9.52355 7.58333 8.75C7.58333 7.97645 7.89062 7.23459 8.4376 6.6876C8.98459 6.14062 9.72645 5.83333 10.5 5.83333C11.2735 5.83333 12.0154 6.14062 12.5624 6.6876C13.1094 7.23459 13.4167 7.97645 13.4167 8.75C13.4167 9.52355 13.1094 10.2654 12.5624 10.8124C12.0154 11.3594 11.2735 11.6667 10.5 11.6667V11.6667ZM5.2815 17.5C5.42292 16.2148 6.03363 15.027 6.99659 14.1642C7.95956 13.3014 9.20704 12.8242 10.5 12.8242C11.793 12.8242 13.0404 13.3014 14.0034 14.1642C14.9664 15.027 15.5771 16.2148 15.7185 17.5H5.2815Z" fill="#508FF4"/>
</svg>
