<svg width="24" height="24" viewBox="0 0 24 24" fill="none" xmlns="http://www.w3.org/2000/svg">
<path d="M5.27416 5.52842C3.78671 7.07226 2.87608 9.0811 2.69533 11.2173C2.51458 13.3535 3.07473 15.4867 4.28163 17.2586C5.48853 19.0304 7.2686 20.3327 9.32263 20.9466C11.3767 21.5606 13.5794 21.4487 15.5607 20.6298C15.6948 19.7548 15.4008 18.9148 15.2807 18.6208C15.0123 17.9674 14.128 16.8509 12.6522 15.3028C12.2578 14.8886 12.2835 14.5701 12.4247 13.6263L12.4398 13.5201C12.5355 12.8738 12.6965 12.4911 14.8723 12.1458C15.9783 11.9708 16.2688 12.4118 16.6713 13.0243L16.8067 13.2249C17.1893 13.7849 17.4728 13.9133 17.901 14.1069C18.0935 14.1944 18.3327 14.3053 18.6535 14.4861C19.4142 14.9213 19.4142 15.4124 19.4142 16.4881V16.6106C19.4142 17.0668 19.3698 17.4681 19.2998 17.8169C20.1951 16.6933 20.8189 15.3783 21.1228 13.9741C21.4267 12.57 21.4025 11.1147 21.052 9.72146C20.7014 8.32823 20.0341 7.03471 19.1019 5.94158C18.1696 4.84845 16.9977 3.98522 15.6773 3.41909C15.0322 3.85425 14.1467 4.47142 13.8375 4.89492C13.68 5.11075 13.456 6.21559 12.7292 6.30659C12.5402 6.32992 12.2847 6.31359 12.014 6.29609C11.2883 6.24942 10.2967 6.18525 9.97933 7.04742C9.7775 7.59342 9.7425 9.07742 10.3947 9.84742C10.4997 9.96992 10.5195 10.1974 10.4483 10.4529C10.355 10.7878 10.1672 10.9919 10.1077 11.0339C9.99566 10.9686 9.77166 10.7084 9.61883 10.5323C9.25366 10.1064 8.79633 9.57559 8.206 9.41225C7.99133 9.35275 7.75566 9.30375 7.52583 9.25475C6.88533 9.12059 6.16083 8.96775 5.99166 8.60842C5.868 8.34475 5.86916 7.98192 5.86916 7.59925C5.86916 7.11275 5.86916 6.56325 5.63116 6.03009C5.54842 5.83981 5.42682 5.66894 5.27416 5.52842ZM12 23.6666C5.5565 23.6666 0.333328 18.4434 0.333328 11.9999C0.333328 5.55642 5.5565 0.333252 12 0.333252C18.4435 0.333252 23.6667 5.55642 23.6667 11.9999C23.6667 18.4434 18.4435 23.6666 12 23.6666Z" fill="#508FF4"/>
</svg>
