<svg width="26" height="24" viewBox="0 0 26 24" fill="none" xmlns="http://www.w3.org/2000/svg">
<path d="M21.6044 15.6201C22.3614 13.8214 22.5356 11.8308 22.1026 9.92794C21.6696 8.02513 20.6512 6.30586 19.1905 5.01186C17.7297 3.71787 15.9002 2.91421 13.959 2.71389C12.0179 2.51357 10.0628 2.92665 8.36854 3.89507L7.21121 1.86857C8.98178 0.85662 10.9868 0.326664 13.0261 0.331577C15.0655 0.33649 17.0679 0.8761 18.8335 1.89657C24.0719 4.92057 26.0785 11.3956 23.6367 16.7949L25.2024 17.6979L20.3432 20.2809L20.1507 14.7812L21.6044 15.6201ZM4.39604 8.37974C3.63904 10.1784 3.46479 12.1691 3.89778 14.0719C4.33077 15.9747 5.34922 17.6939 6.80996 18.9879C8.2707 20.2819 10.1003 21.0856 12.0414 21.2859C13.9825 21.4862 15.9377 21.0732 17.6319 20.1047L18.7892 22.1312C17.0186 23.1432 15.0137 23.6731 12.9743 23.6682C10.935 23.6633 8.93255 23.1237 7.16687 22.1032C1.92854 19.0792 -0.078125 12.6042 2.36371 7.2049L0.796875 6.30307L5.65604 3.72007L5.84854 9.21974L4.39488 8.3809L4.39604 8.37974ZM14.651 15.2992L11.3482 11.9999L8.04887 15.2992L6.39921 13.6496L11.3494 8.70057L14.6499 11.9999L17.9504 8.70057L19.6 10.3502L14.6499 15.2992H14.651Z" fill="#508FF4"/>
</svg>
