<svg width="24" height="22" viewBox="0 0 24 22" fill="none" xmlns="http://www.w3.org/2000/svg">
<path d="M2.66665 2.83333V19.1667H21.3333V2.83333H2.66665ZM1.49998 0.5H22.5C22.8094 0.5 23.1061 0.622916 23.3249 0.841709C23.5437 1.0605 23.6666 1.35725 23.6666 1.66667V20.3333C23.6666 20.6428 23.5437 20.9395 23.3249 21.1583C23.1061 21.3771 22.8094 21.5 22.5 21.5H1.49998C1.19056 21.5 0.893814 21.3771 0.675022 21.1583C0.456229 20.9395 0.333313 20.6428 0.333313 20.3333V1.66667C0.333313 1.35725 0.456229 1.0605 0.675022 0.841709C0.893814 0.622916 1.19056 0.5 1.49998 0.5ZM12 7.5V4L17.8333 9.83333H7.33331V7.5H12ZM6.16665 12.1667H16.6666V14.5H12V18L6.16665 12.1667Z" fill="#508FF4"/>
</svg>
