<svg width="26" height="26" viewBox="0 0 26 26" fill="none" xmlns="http://www.w3.org/2000/svg">
<path d="M0.166656 25.6665C0.166656 23.1912 1.14999 20.8172 2.90033 19.0669C4.65067 17.3165 7.02464 16.3332 9.49999 16.3332C11.9753 16.3332 14.3493 17.3165 16.0997 19.0669C17.85 20.8172 18.8333 23.1912 18.8333 25.6665H16.5C16.5 23.81 15.7625 22.0296 14.4497 20.7168C13.137 19.404 11.3565 18.6665 9.49999 18.6665C7.64348 18.6665 5.863 19.404 4.55024 20.7168C3.23749 22.0296 2.49999 23.81 2.49999 25.6665H0.166656ZM9.49999 15.1665C5.63249 15.1665 2.49999 12.0341 2.49999 8.16655C2.49999 4.29905 5.63249 1.16655 9.49999 1.16655C13.3675 1.16655 16.5 4.29905 16.5 8.16655C16.5 12.0341 13.3675 15.1665 9.49999 15.1665ZM9.49999 12.8332C12.0783 12.8332 14.1667 10.7449 14.1667 8.16655C14.1667 5.58822 12.0783 3.49988 9.49999 3.49988C6.92166 3.49988 4.83332 5.58822 4.83332 8.16655C4.83332 10.7449 6.92166 12.8332 9.49999 12.8332ZM24.1393 0.914551C25.2572 3.16835 25.8371 5.65074 25.8333 8.16655C25.8333 10.7717 25.2232 13.2345 24.1393 15.4185L22.2202 14.0232C23.0662 12.1868 23.5029 10.1885 23.5 8.16655C23.5 6.07588 23.0415 4.09138 22.2202 2.30988L24.1393 0.914551ZM20.287 3.71455C20.8697 5.1264 21.1686 6.63919 21.1667 8.16655C21.1686 9.69391 20.8697 11.2067 20.287 12.6186L18.3305 11.1952C18.6643 10.2204 18.8343 9.19696 18.8333 8.16655C18.8346 7.13621 18.6651 6.11278 18.3317 5.13788L20.287 3.71455Z" fill="white"/>
</svg>
