<svg width="20" height="16" viewBox="0 0 20 16" fill="none" xmlns="http://www.w3.org/2000/svg">
<path d="M19.1663 2.26344C18.4846 2.5625 17.7581 2.76073 17.0007 2.85698C17.7799 2.39177 18.3746 1.66073 18.6542 0.779583C17.9277 1.21271 17.1256 1.51865 16.2708 1.68938C15.581 0.954896 14.5979 0.5 13.5254 0.5C11.4446 0.5 9.76936 2.18896 9.76936 4.25948C9.76936 4.5574 9.79457 4.84385 9.85645 5.11656C6.73176 4.96417 3.96686 3.46656 2.10947 1.18521C1.7852 1.74781 1.59499 2.39177 1.59499 3.085C1.59499 4.38667 2.2653 5.54052 3.26447 6.20854C2.66061 6.19708 2.06822 6.02177 1.56634 5.74562C1.56634 5.75708 1.56634 5.77198 1.56634 5.78687C1.56634 7.61333 2.86915 9.13042 4.57759 9.47989C4.27165 9.56354 3.93822 9.60365 3.59217 9.60365C3.35155 9.60365 3.10863 9.5899 2.88061 9.53948C3.36759 11.0279 4.74947 12.1222 6.39259 12.1577C5.11384 13.158 3.4902 13.7607 1.73249 13.7607C1.42426 13.7607 1.12863 13.747 0.833008 13.7092C2.4979 14.7828 4.47103 15.3958 6.59884 15.3958C13.5151 15.3958 17.2963 9.66667 17.2963 4.70062C17.2963 4.53448 17.2906 4.37406 17.2826 4.21479C18.0285 3.68542 18.6553 3.02427 19.1663 2.26344Z" fill="#03A9F4"/>
</svg>
