<svg width="31" height="26" viewBox="0 0 31 26" fill="none" xmlns="http://www.w3.org/2000/svg">
<path fill-rule="evenodd" clip-rule="evenodd" d="M15.0416 7.00995L15.1088 8.11722L13.9896 7.98164C9.91582 7.4619 6.35687 5.6993 3.33512 2.73905L1.85782 1.27021L1.4773 2.35489C0.6715 4.77281 1.18632 7.32632 2.86507 9.04372C3.7604 9.99281 3.55895 10.1284 2.0145 9.56346C1.4773 9.38268 1.00725 9.24709 0.962484 9.31489C0.8058 9.47307 1.343 11.5294 1.76828 12.3429C2.35025 13.4728 3.53657 14.5801 4.8348 15.2354L5.93158 15.7551L4.63335 15.7777C3.37988 15.7777 3.33512 15.8003 3.46942 16.2749C3.91708 17.7437 5.68537 19.3029 7.6551 19.9809L9.04287 20.4554L7.83417 21.1785C6.0435 22.218 3.93947 22.8055 1.83543 22.8507C0.828184 22.8733 0 22.9637 0 23.0315C0 23.2575 2.73077 24.5229 4.31998 25.0201C9.08764 26.4889 14.7506 25.8562 19.0035 23.3479C22.0252 21.5627 25.047 18.0149 26.4571 14.5801C27.2181 12.7497 27.9792 9.40528 27.9792 7.80086C27.9792 6.76138 28.0463 6.6258 29.2998 5.38294C30.0384 4.65982 30.7323 3.86891 30.8666 3.64294C31.0905 3.21359 31.0681 3.21359 29.9265 3.59775C28.0239 4.27567 27.7553 4.18528 28.6954 3.1684C29.3893 2.44528 30.2175 1.13463 30.2175 0.750475C30.2175 0.682682 29.8818 0.795669 29.5012 0.999046C29.0983 1.22502 28.203 1.56398 27.5315 1.76736L26.3228 2.15151L25.226 1.4058C24.6217 0.999046 23.7711 0.547098 23.3234 0.411514C22.1819 0.0951501 20.436 0.140345 19.4064 0.501903C16.6084 1.51879 14.8402 4.14008 15.0416 7.00995Z" fill="white"/>
</svg>
